<svg width="1280" height="720" xmlns="http://www.w3.org/2000/svg" xmlns:xlink="http://www.w3.org/1999/xlink" overflow="hidden"><g><rect x="0" y="0" width="1280" height="720" fill="#FFFFFF"/><path d="M213 337.333C213 329.417 219.417 323 227.333 323L1026.67 323C1034.58 323 1041 329.417 1041 337.333L1041 394.667C1041 402.583 1034.58 409 1026.67 409L227.333 409C219.417 409 213 402.583 213 394.667Z" fill="#4472C4" fill-rule="evenodd" fill-opacity="0.341176"/><path d="M30 48.0001C30 44.6864 32.6863 42 36.0001 42L169 42C172.314 42 175 44.6864 175 48.0001L175 71.9999C175 75.3136 172.314 78 169 78L36.0001 78C32.6863 78 30 75.3136 30 71.9999Z" stroke="#4472C4" stroke-width="2" stroke-miterlimit="8" fill="#FFFFFF" fill-rule="evenodd"/><text font-family="Cascadia Code,Cascadia Code_MSFontService,sans-serif" font-weight="400" font-size="19" transform="translate(41.6869 67)">cleaned_ehr</text><text font-family="Cascadia Code,Cascadia Code_MSFontService,sans-serif" font-weight="400" font-size="19" transform="translate(162.687 67)"></text><path d="M253 48C253 44.6863 255.686 42 259 42L416 42C419.314 42 422 44.6863 422 48L422 72C422 75.3137 419.314 78 416 78L259 78C255.686 78 253 75.3137 253 72Z" stroke="#4472C4" stroke-width="2" stroke-miterlimit="8" fill="#FFFFFF" fill-rule="evenodd"/><text font-family="Cascadia Code,Cascadia Code_MSFontService,sans-serif" font-weight="400" font-size="19" transform="translate(288.371 67)">cle_lines</text><text font-family="Cascadia Code,Cascadia Code_MSFontService,sans-serif" font-weight="400" font-size="19" transform="translate(387.371 67)"></text><path d="M692 45.3334C692 41.2833 695.283 38 699.333 38L867.667 38C871.717 38 875 41.2833 875 45.3334L875 74.6666C875 78.7167 871.717 82 867.667 82L699.333 82C695.283 82 692 78.7167 692 74.6666Z" stroke="#4472C4" stroke-width="2" stroke-miterlimit="8" fill="#FFFFFF" fill-rule="evenodd"/><text font-family="Cascadia Code,Cascadia Code_MSFontService,sans-serif" font-weight="400" font-size="19" transform="translate(706.181 56)">trunc_replaced</text><text font-family="Cascadia Code,Cascadia Code_MSFontService,sans-serif" font-weight="400" font-size="19" transform="translate(728.181 78)">_cle_lines</text><text font-family="Cascadia Code,Cascadia Code_MSFontService,sans-serif" font-weight="400" font-size="19" transform="translate(838.181 78)"></text><path d="M954 48.0001C954 44.6864 956.686 42 960 42L1093 42C1096.31 42 1099 44.6864 1099 48.0001L1099 71.9999C1099 75.3136 1096.31 78 1093 78L960 78C956.686 78 954 75.3136 954 71.9999Z" stroke="#4472C4" stroke-width="2" stroke-miterlimit="8" fill="#FFFFFF" fill-rule="evenodd"/><text font-family="Cascadia Code,Cascadia Code_MSFontService,sans-serif" font-weight="400" font-size="19" transform="translate(982.655 67)">cle_embs</text><text font-family="Cascadia Code,Cascadia Code_MSFontService,sans-serif" font-weight="400" font-size="19" transform="translate(1070.66 67)"></text><path d="M1203 111C1203 107.686 1205.69 105 1209 105L1257 105C1260.31 105 1263 107.686 1263 111L1263 135C1263 138.314 1260.31 141 1257 141L1209 141C1205.69 141 1203 138.314 1203 135Z" stroke="#4472C4" stroke-width="2" stroke-miterlimit="8" fill="#FFFFFF" fill-rule="evenodd"/><text font-family="Cascadia Code,Cascadia Code_MSFontService,sans-serif" font-weight="400" font-size="19" transform="translate(1216.24 130)">sim</text><text font-family="Cascadia Code,Cascadia Code_MSFontService,sans-serif" font-weight="400" font-size="19" transform="translate(1249.24 130)"></text><path d="M175 59 246.86 59.0001 246.86 61.0001 175 61ZM245.526 56.0001 253.526 60.0001 245.526 64.0001Z" fill="#4472C4"/><text font-family="Microsoft YaHei,Microsoft YaHei_MSFontService,sans-serif" font-weight="400" font-size="16" transform="translate(180.738 83)">非空，</text><text font-family="Microsoft YaHei,Microsoft YaHei_MSFontService,sans-serif" font-weight="400" font-size="16" transform="translate(180.738 103)">非单个字符</text><path d="M422 59 571.462 59.0001 571.462 61.0001 422 61ZM570.129 56.0001 578.129 60.0001 570.129 64.0001Z" fill="#4472C4"/><text font-family="Microsoft YaHei,Microsoft YaHei_MSFontService,sans-serif" font-weight="400" font-size="15" transform="translate(431.463 82)">删去开头被展开的缩写</text><text font-family="Microsoft YaHei,Microsoft YaHei_MSFontService,sans-serif" font-weight="400" font-size="15" transform="translate(431.463 100)">&amp;</text><text font-family="Microsoft YaHei,Microsoft YaHei_MSFontService,sans-serif" font-weight="400" font-size="15" transform="translate(448.63 100)">手动删除部分展开</text><path d="M588 59 685.395 59.0001 685.395 61.0001 588 61ZM684.061 56.0001 692.061 60.0001 684.061 64.0001Z" fill="#4472C4"/><text font-family="Microsoft YaHei,Microsoft YaHei_MSFontService,sans-serif" font-weight="400" font-size="15" transform="translate(608.611 56)">截断至</text><text font-family="Cascadia Code,Cascadia Code_MSFontService,sans-serif" font-weight="400" font-size="15" transform="translate(608.611 74)">ori_lines</text><text font-family="Cascadia Code,Cascadia Code_MSFontService,sans-serif" font-weight="400" font-size="15" transform="translate(686.611 74)"></text><text font-family="Microsoft YaHei,Microsoft YaHei_MSFontService,sans-serif" font-weight="400" font-size="15" transform="translate(608.611 91)">平均长度</text><path d="M875 59 947.807 59.0001 947.807 61.0001 875 61ZM946.474 56.0001 954.474 60.0001 946.474 64.0001Z" fill="#4472C4"/><text fill="#0070C0" font-family="Cascadia Code,Cascadia Code_MSFontService,sans-serif" font-weight="400" font-size="16" transform="translate(890.382 55)">embed</text><text fill="#0070C0" font-family="Cascadia Code,Cascadia Code_MSFontService,sans-serif" font-weight="400" font-size="16" transform="translate(937.049 55)"></text><text fill="#0070C0" font-family="Cascadia Code,Cascadia Code_MSFontService,sans-serif" font-weight="400" font-size="16" transform="translate(180.624 36)">load_per</text><text fill="#0070C0" font-family="Cascadia Code,Cascadia Code_MSFontService,sans-serif" font-weight="400" font-size="16" transform="translate(180.624 56)">_line</text><text fill="#0070C0" font-family="Cascadia Code,Cascadia Code_MSFontService,sans-serif" font-weight="400" font-size="16" transform="translate(227.291 56)"></text><text fill="#0070C0" font-family="Cascadia Code,Cascadia Code_MSFontService,sans-serif" font-weight="400" font-size="16" transform="translate(427.444 29)">replace_full_form</text><text fill="#0070C0" font-family="Cascadia Code,Cascadia Code_MSFontService,sans-serif" font-weight="400" font-size="16" transform="translate(586.111 29)"></text><text fill="#0070C0" font-family="Cascadia Code,Cascadia Code_MSFontService,sans-serif" font-weight="400" font-size="16" transform="translate(427.444 49)">manual_replace_full</text><text fill="#0070C0" font-family="Cascadia Code,Cascadia Code_MSFontService,sans-serif" font-weight="400" font-size="16" transform="translate(604.778 49)"></text><path d="M30 169C30 165.686 32.6863 163 36.0001 163L169 163C172.314 163 175 165.686 175 169L175 193C175 196.314 172.314 199 169 199L36.0001 199C32.6863 199 30 196.314 30 193Z" stroke="#4472C4" stroke-width="2" stroke-miterlimit="8" fill="#FFFFFF" fill-rule="evenodd"/><text font-family="Cascadia Code,Cascadia Code_MSFontService,sans-serif" font-weight="400" font-size="19" transform="translate(47.1868 187)">origin_ehr</text><text font-family="Cascadia Code,Cascadia Code_MSFontService,sans-serif" font-weight="400" font-size="19" transform="translate(157.187 187)"></text><path d="M253 169C253 165.686 255.686 163 259 163L416 163C419.314 163 422 165.686 422 169L422 193C422 196.314 419.314 199 416 199L259 199C255.686 199 253 196.314 253 193Z" stroke="#4472C4" stroke-width="2" stroke-miterlimit="8" fill="#FFFFFF" fill-rule="evenodd"/><text font-family="Cascadia Code,Cascadia Code_MSFontService,sans-serif" font-weight="400" font-size="19" transform="translate(288.371 187)">ori_lines</text><text font-family="Cascadia Code,Cascadia Code_MSFontService,sans-serif" font-weight="400" font-size="19" transform="translate(387.371 187)"></text><path d="M692 165.5C692 161.358 695.358 158 699.5 158L865.5 158C869.642 158 873 161.358 873 165.5L873 195.5C873 199.642 869.642 203 865.5 203L699.5 203C695.358 203 692 199.642 692 195.5Z" stroke="#4472C4" stroke-width="2" stroke-miterlimit="8" fill="#FFFFFF" fill-rule="evenodd"/><text font-family="Cascadia Code,Cascadia Code_MSFontService,sans-serif" font-weight="400" font-size="19" transform="translate(733.154 176)">replaced_</text><text font-family="Cascadia Code,Cascadia Code_MSFontService,sans-serif" font-weight="400" font-size="19" transform="translate(832.154 176)"></text><text font-family="Cascadia Code,Cascadia Code_MSFontService,sans-serif" font-weight="400" font-size="19" transform="translate(733.154 198)">ori_lines</text><text font-family="Cascadia Code,Cascadia Code_MSFontService,sans-serif" font-weight="400" font-size="19" transform="translate(832.154 198)"></text><path d="M954 169C954 165.686 956.686 163 960 163L1093 163C1096.31 163 1099 165.686 1099 169L1099 193C1099 196.314 1096.31 199 1093 199L960 199C956.686 199 954 196.314 954 193Z" stroke="#4472C4" stroke-width="2" stroke-miterlimit="8" fill="#FFFFFF" fill-rule="evenodd"/><text font-family="Cascadia Code,Cascadia Code_MSFontService,sans-serif" font-weight="400" font-size="19" transform="translate(982.655 187)">cle_embs</text><text font-family="Cascadia Code,Cascadia Code_MSFontService,sans-serif" font-weight="400" font-size="19" transform="translate(1070.66 187)"></text><path d="M175 180 246.86 180 246.86 182 175 182ZM245.526 177 253.526 181 245.526 185Z" fill="#4472C4"/><text font-family="Microsoft YaHei,Microsoft YaHei_MSFontService,sans-serif" font-weight="400" font-size="16" transform="translate(197.358 199)">非空</text><path d="M422 180 684.749 180 684.749 182 422 182ZM683.416 177 691.416 181 683.416 185Z" fill="#4472C4"/><text font-family="Microsoft YaHei,Microsoft YaHei_MSFontService,sans-serif" font-weight="400" font-size="15" transform="translate(492.623 200)">手动展开一些缩写</text><path d="M873 180 946.862 180 946.862 182 873 182ZM945.529 177 953.529 181 945.529 185Z" fill="#4472C4"/><text fill="#0070C0" font-family="Cascadia Code,Cascadia Code_MSFontService,sans-serif" font-weight="400" font-size="16" transform="translate(890.382 176)">embed</text><text fill="#0070C0" font-family="Cascadia Code,Cascadia Code_MSFontService,sans-serif" font-weight="400" font-size="16" transform="translate(937.049 176)"></text><text fill="#0070C0" font-family="Cascadia Code,Cascadia Code_MSFontService,sans-serif" font-weight="400" font-size="16" transform="translate(180.624 156)">load_per</text><text fill="#0070C0" font-family="Cascadia Code,Cascadia Code_MSFontService,sans-serif" font-weight="400" font-size="16" transform="translate(180.624 176)">_line</text><text fill="#0070C0" font-family="Cascadia Code,Cascadia Code_MSFontService,sans-serif" font-weight="400" font-size="16" transform="translate(227.291 176)"></text><text fill="#0070C0" font-family="Cascadia Code,Cascadia Code_MSFontService,sans-serif" font-weight="400" font-size="16" transform="translate(468.9 170)">manual_replace_abbr</text><text fill="#0070C0" font-family="Cascadia Code,Cascadia Code_MSFontService,sans-serif" font-weight="400" font-size="16" transform="translate(646.233 170)"></text><path d="M1099 59 1151.62 59 1151.62 122.836 1150.62 121.836 1195.57 121.836 1195.57 123.836 1149.62 123.836 1149.62 60 1150.62 61 1099 61ZM1194.24 118.836 1202.24 122.836 1194.24 126.836Z" fill="#4472C4"/><path d="M0-1 52.6197-1 52.6197 57.3843 51.6197 56.3843 96.5727 56.3843 96.5727 58.3843 50.6197 58.3843 50.6197 0 51.6197 1 0 1ZM95.2394 53.3843 103.239 57.3843 95.2394 61.3843Z" fill="#4472C4" transform="matrix(1 0 0 -1 1099 180.384)"/><text font-family="Cascadia Code,Cascadia Code_MSFontService,sans-serif" font-weight="400" font-size="16" transform="translate(964.179 116)">torch.nn.functional</text><text font-family="Cascadia Code,Cascadia Code_MSFontService,sans-serif" font-weight="400" font-size="16" transform="translate(1141.51 116)">.</text><text font-family="Cascadia Code,Cascadia Code_MSFontService,sans-serif" font-weight="400" font-size="16" transform="translate(1150.85 116)"></text><text font-family="Cascadia Code,Cascadia Code_MSFontService,sans-serif" font-weight="400" font-size="16" transform="translate(964.179 136)">cosine_similarity</text><text font-family="Cascadia Code,Cascadia Code_MSFontService,sans-serif" font-weight="400" font-size="16" transform="translate(1122.85 136)"></text><text font-family="Cascadia Code,Cascadia Code_MSFontService,sans-serif" font-weight="400" font-size="16" transform="translate(964.179 155)"></text><path d="M55 486C55 482.686 57.6864 480 61.0001 480L109 480C112.314 480 115 482.686 115 486L115 510C115 513.314 112.314 516 109 516L61.0001 516C57.6864 516 55 513.314 55 510Z" stroke="#4472C4" stroke-width="2" stroke-miterlimit="8" fill="#FFFFFF" fill-rule="evenodd"/><text font-family="Cascadia Code,Cascadia Code_MSFontService,sans-serif" font-weight="400" font-size="19" transform="translate(68.5558 504)">sim</text><text font-family="Cascadia Code,Cascadia Code_MSFontService,sans-serif" font-weight="400" font-size="19" transform="translate(101.556 504)"></text><path d="M1233.89 141 1233.89 263.265 30.9952 263.265 31.9952 262.265 31.9952 497.526 30.9952 496.526 48.3334 496.526 48.3334 498.526 29.9952 498.526 29.9952 261.265 1232.89 261.265 1231.89 262.265 1231.89 141ZM47.0001 493.526 55.0001 497.526 47.0001 501.526Z" fill="#4472C4"/><path d="M115 497 206.496 497 206.496 499 115 499ZM205.162 494 213.162 498 205.162 502Z" fill="#4472C4"/><path d="M213 498C213 490.82 218.82 485 226 485 233.18 485 239 490.82 239 498 239 505.18 233.18 511 226 511 218.82 511 213 505.18 213 498Z" stroke="#4472C4" stroke-width="2" stroke-miterlimit="8" fill="none" fill-rule="evenodd"/><path d="M217 488 235.405 506.405" stroke="#4472C4" stroke-width="2" stroke-miterlimit="8" fill="none" fill-rule="evenodd"/><path d="M0 0 18.4055 18.4055" stroke="#4472C4" stroke-width="2" stroke-miterlimit="8" fill="none" fill-rule="evenodd" transform="matrix(1 0 0 -1 217 506.405)"/><path d="M1-1.95388e-06 1.00009 47.0658-0.999908 47.0658-1 1.95388e-06ZM4.00009 45.7325 0.000104987 53.7325-3.99991 45.7325Z" fill="#4472C4" transform="matrix(1 0 0 -1 226 564.732)"/><path d="M153 570C153 566.686 155.686 564 159 564L294 564C297.314 564 300 566.686 300 570L300 594C300 597.314 297.314 600 294 600L159 600C155.686 600 153 597.314 153 594Z" stroke="#4472C4" stroke-width="2" stroke-miterlimit="8" fill="#FFFFFF" fill-rule="evenodd"/><text font-family="Cascadia Code,Cascadia Code_MSFontService,sans-serif" font-weight="400" font-size="19" transform="translate(171.443 589)">pos_weight</text><text font-family="Cascadia Code,Cascadia Code_MSFontService,sans-serif" font-weight="400" font-size="19" transform="translate(281.443 589)"></text><text fill="#0070C0" font-family="Cascadia Code,Cascadia Code_MSFontService,sans-serif" font-weight="400" font-size="16" transform="translate(155.666 668)">position_weight</text><text fill="#0070C0" font-family="Cascadia Code,Cascadia Code_MSFontService,sans-serif" font-weight="400" font-size="16" transform="translate(295.666 668)"></text><path d="M1-2.17918e-06 1.00009 41.5107-0.99991 41.5107-1 2.17918e-06ZM4.00009 40.1773 0.000104987 48.1773-3.99991 40.1773Z" fill="#4472C4" transform="matrix(1 0 0 -1 226 648.177)"/><path d="M343 486C343 482.686 345.686 480 349 480L438 480C441.314 480 444 482.686 444 486L444 510C444 513.314 441.314 516 438 516L349 516C345.686 516 343 513.314 343 510Z" stroke="#4472C4" stroke-width="2" stroke-miterlimit="8" fill="#FFFFFF" fill-rule="evenodd"/><text font-family="Cascadia Code,Cascadia Code_MSFontService,sans-serif" font-weight="400" font-size="19" transform="translate(360.451 504)">weight</text><text font-family="Cascadia Code,Cascadia Code_MSFontService,sans-serif" font-weight="400" font-size="19" transform="translate(426.451 504)"></text><path d="M239 497 336.055 497 336.055 499 239 499ZM334.722 494 342.722 498 334.722 502Z" fill="#4472C4"/><path d="M444.006 497 541.817 497.549 541.806 499.549 443.994 499ZM540.501 494.542 548.478 498.587 540.456 502.542Z" fill="#4472C4"/><path d="M548 498C548 490.82 553.82 485 561 485 568.18 485 574 490.82 574 498 574 505.18 568.18 511 561 511 553.82 511 548 505.18 548 498Z" stroke="#4472C4" stroke-width="2" stroke-miterlimit="8" fill="none" fill-rule="evenodd"/><path d="M561 485 561 511.029" stroke="#4472C4" stroke-width="2" stroke-miterlimit="8" fill="none" fill-rule="evenodd"/><path d="M548 498 574.029 498" stroke="#4472C4" stroke-width="2" stroke-miterlimit="8" fill="none" fill-rule="evenodd"/><path d="M1-1.99144e-06 1.00009 46.0525-0.999908 46.0525-1 1.99144e-06ZM4.00009 44.7192 0.000104987 52.7192-3.99991 44.7192Z" fill="#4472C4" transform="matrix(1 0 0 -1 561 563.719)"/><text font-family="Cascadia Code,Cascadia Code_MSFontService,sans-serif" font-weight="400" font-size="16" transform="translate(471.588 584)"></text><text font-family="Microsoft YaHei,Microsoft YaHei_MSFontService,sans-serif" font-weight="400" font-size="16" transform="translate(508.921 584)">开头完全匹配</text><text font-family="Microsoft YaHei,Microsoft YaHei_MSFontService,sans-serif" font-weight="400" font-size="16" transform="translate(604.921 584)"></text><text font-family="Cascadia Code,Cascadia Code_MSFontService,sans-serif" font-weight="400" font-size="16" transform="translate(471.588 604)"></text><text font-family="Cascadia Code,Cascadia Code_MSFontService,sans-serif" font-weight="400" font-size="16" transform="translate(480.921 604)">prob &lt;</text><text font-family="Cascadia Code,Cascadia Code_MSFontService,sans-serif" font-weight="400" font-size="16" transform="translate(536.921 604)">-</text><text font-family="Cascadia Code,Cascadia Code_MSFontService,sans-serif" font-weight="400" font-size="16" transform="translate(546.255 604)"></text><text font-family="Cascadia Code,Cascadia Code_MSFontService,sans-serif" font-weight="400" font-size="16" transform="translate(555.588 604)">(prob+1)/2</text><text font-family="Cascadia Code,Cascadia Code_MSFontService,sans-serif" font-weight="400" font-size="16" transform="translate(648.921 604)"></text><path d="M680 485C680 481.686 682.686 479 686 479L774 479C777.314 479 780 481.686 780 485L780 509C780 512.314 777.314 515 774 515L686 515C682.686 515 680 512.314 680 509Z" stroke="#4472C4" stroke-width="2" stroke-miterlimit="8" fill="#FFFFFF" fill-rule="evenodd"/><text font-family="Cascadia Code,Cascadia Code_MSFontService,sans-serif" font-weight="400" font-size="19" transform="translate(697.117 504)">weight</text><text font-family="Cascadia Code,Cascadia Code_MSFontService,sans-serif" font-weight="400" font-size="19" transform="translate(763.117 504)"></text><path d="M0.00797288-0.999968 98.9588-0.21102 98.9429 1.78892-0.00797288 0.999968ZM97.6494-3.22156 105.617 0.8421 97.5856 4.77819Z" fill="#4472C4" transform="matrix(1 0 0 -1 574 497.842)"/><path d="M1006 486C1006 482.686 1008.69 480 1012 480L1100 480C1103.31 480 1106 482.686 1106 486L1106 510C1106 513.314 1103.31 516 1100 516L1012 516C1008.69 516 1006 513.314 1006 510Z" stroke="#4472C4" stroke-width="2" stroke-miterlimit="8" fill="#FFFFFF" fill-rule="evenodd"/><text font-family="Cascadia Code,Cascadia Code_MSFontService,sans-serif" font-weight="400" font-size="19" transform="translate(1017.28 504)">matched</text><text font-family="Cascadia Code,Cascadia Code_MSFontService,sans-serif" font-weight="400" font-size="19" transform="translate(1094.28 504)"></text><path d="M780.001 496 998.457 496.248 998.454 498.248 779.999 498ZM997.127 493.246 1005.12 497.255 997.117 501.246Z" fill="#4472C4"/><text fill="#0070C0" font-family="Cascadia Code,Cascadia Code_MSFontService,sans-serif" font-weight="400" font-size="16" transform="translate(810.698 484)">argmax_with_order</text><text fill="#0070C0" font-family="Cascadia Code,Cascadia Code_MSFontService,sans-serif" font-weight="400" font-size="16" transform="translate(969.365 484)"></text><text font-family="Microsoft YaHei,Microsoft YaHei_MSFontService,sans-serif" font-weight="400" font-size="16" transform="translate(792.941 532)">保证</text><text font-family="Cascadia Code,Cascadia Code_MSFontService,sans-serif" font-weight="400" font-size="16" transform="translate(824.941 532)"></text><text font-family="Cascadia Code,Cascadia Code_MSFontService,sans-serif" font-weight="400" font-size="16" transform="translate(834.274 532)">cle_lines</text><text font-family="Cascadia Code,Cascadia Code_MSFontService,sans-serif" font-weight="400" font-size="16" transform="translate(918.274 532)"></text><text font-family="Microsoft YaHei,Microsoft YaHei_MSFontService,sans-serif" font-weight="400" font-size="16" transform="translate(927.607 532)">各段匹配</text><text font-family="Microsoft YaHei,Microsoft YaHei_MSFontService,sans-serif" font-weight="400" font-size="16" transform="translate(792.941 552)">的</text><text font-family="Cascadia Code,Cascadia Code_MSFontService,sans-serif" font-weight="400" font-size="16" transform="translate(808.941 552)"></text><text font-family="Cascadia Code,Cascadia Code_MSFontService,sans-serif" font-weight="400" font-size="16" transform="translate(818.274 552)">ori_lines</text><text font-family="Cascadia Code,Cascadia Code_MSFontService,sans-serif" font-weight="400" font-size="16" transform="translate(902.274 552)"></text><text font-family="Microsoft YaHei,Microsoft YaHei_MSFontService,sans-serif" font-weight="400" font-size="16" transform="translate(911.607 552)">中的起始句</text><text font-family="Microsoft YaHei,Microsoft YaHei_MSFontService,sans-serif" font-weight="400" font-size="16" transform="translate(792.941 571)">的下标严格递增</text><text font-family="Cascadia Code,Cascadia Code_MSFontService,sans-serif" font-weight="400" font-size="16" transform="translate(904.941 571)"></text><path d="M388 354C388 350.686 390.686 348 394 348L442 348C445.314 348 448 350.686 448 354L448 378C448 381.314 445.314 384 442 384L394 384C390.686 384 388 381.314 388 378Z" stroke="#4472C4" stroke-width="2" stroke-miterlimit="8" fill="#FFFFFF" fill-rule="evenodd"/><text font-family="Cascadia Code,Cascadia Code_MSFontService,sans-serif" font-weight="400" font-size="19" transform="translate(401.568 373)">sim</text><text font-family="Cascadia Code,Cascadia Code_MSFontService,sans-serif" font-weight="400" font-size="19" transform="translate(434.568 373)"></text><text font-family="Microsoft YaHei,Microsoft YaHei_MSFontService,sans-serif" font-weight="400" font-size="16" transform="translate(462.828 372)">变量名</text><text font-family="Microsoft YaHei,Microsoft YaHei_MSFontService,sans-serif" font-weight="400" font-size="16" transform="translate(794.873 372)">函数名</text><text fill="#0070C0" font-family="Cascadia Code,Cascadia Code_MSFontService,sans-serif" font-weight="400" font-size="19" transform="translate(592.734 374)">argmax_with_order</text><text fill="#0070C0" font-family="Cascadia Code,Cascadia Code_MSFontService,sans-serif" font-weight="400" font-size="19" transform="translate(779.734 374)"></text></g></svg>